<?xml version="1.0" standalone="no"?>
<!DOCTYPE svg PUBLIC "-//W3C//DTD SVG 20010904//EN"
 "http://www.w3.org/TR/2001/REC-SVG-20010904/DTD/svg10.dtd">
<svg version="1.0" xmlns="http://www.w3.org/2000/svg"
 width="164.000000pt" height="151.000000pt" viewBox="0 0 164.000000 151.000000"
 preserveAspectRatio="xMidYMid meet">

<g transform="translate(0.000000,151.000000) scale(0.100000,-0.100000)"
fill="#000000" stroke="none">
<path d="M1 1183 l1 -328 18 70 c79 295 349 528 665 574 41 6 -58 9 -312 10
l-373 1 1 -327z"/>
<path d="M925 1503 c150 -20 314 -89 427 -178 139 -109 249 -293 278 -463 4
-28 8 91 9 301 l1 347 -372 -1 c-205 -1 -359 -4 -343 -6z"/>
<path d="M800 1229 c0 -7 -10 -9 -24 -5 -14 3 -28 1 -31 -4 -4 -6 -14 -9 -23
-8 -16 3 -18 -1 -21 -39 -1 -13 -4 -14 -13 -5 -9 9 -14 5 -23 -21 -8 -23 -16
-31 -30 -29 -100 13 -118 11 -141 -13 -12 -13 -19 -27 -15 -31 3 -4 -6 -4 -20
-1 -30 8 -79 -24 -79 -49 0 -9 -16 -31 -36 -50 -32 -30 -36 -38 -31 -69 5 -29
3 -35 -12 -35 -21 0 -61 -78 -61 -120 0 -20 -5 -30 -14 -30 -20 0 -44 -36 -57
-82 -5 -21 -16 -38 -23 -38 -14 0 -31 -84 -20 -101 4 -8 82 34 94 51 3 4 20 7
38 8 41 1 65 19 58 44 -4 17 0 18 25 13 16 -4 29 -2 29 3 0 5 9 12 20 15 12 3
20 14 20 26 0 16 6 21 25 21 19 0 25 5 25 21 0 15 4 19 16 15 9 -3 28 3 44 14
15 11 40 20 54 20 15 0 29 7 32 15 4 10 13 13 24 10 11 -3 20 1 24 11 6 15 8
15 27 -2 15 -13 36 -18 80 -19 57 0 64 4 59 34 -1 12 1 13 13 3 12 -10 18 -10
31 3 9 9 16 22 16 30 0 7 7 16 16 19 10 4 14 12 10 22 -4 12 -1 14 14 9 24 -8
50 15 50 43 0 16 7 19 36 18 34 -1 38 1 48 38 l11 39 12 -26 c17 -36 54 -36
83 1 12 15 23 22 26 16 6 -15 84 -1 98 18 6 8 52 28 103 44 64 20 93 34 97 47
3 11 -2 21 -12 24 -9 4 -20 10 -23 15 -3 5 -37 13 -75 18 -38 5 -96 14 -129
19 -33 6 -68 8 -77 5 -10 -3 -18 -1 -18 5 0 6 -21 11 -47 11 -27 0 -81 5 -122
10 -50 7 -78 7 -87 -1 -8 -7 -14 -7 -19 1 -8 14 -75 13 -75 -1z"/>
<path d="M1457 1060 c-14 -11 -28 -29 -32 -39 -3 -10 -23 -23 -45 -30 -56 -17
-162 -68 -171 -82 -4 -7 -22 -17 -41 -23 -20 -7 -34 -19 -37 -31 -2 -11 -12
-26 -22 -33 -11 -7 -17 -17 -14 -22 3 -4 -7 -11 -21 -14 -18 -5 -24 -11 -20
-23 5 -12 1 -14 -18 -9 -33 8 -56 -2 -56 -25 0 -12 -7 -19 -20 -19 -11 0 -23
-7 -26 -15 -4 -10 -14 -13 -30 -9 -17 4 -26 1 -30 -10 -4 -11 -15 -16 -29 -14
-28 4 -55 -18 -55 -46 -1 -18 -3 -18 -16 7 -12 23 -20 27 -37 22 -12 -4 -39
-10 -60 -15 -21 -4 -44 -13 -50 -19 -6 -6 -21 -11 -33 -11 -13 0 -31 -11 -42
-25 -23 -29 -32 -32 -32 -10 0 11 -17 3 -55 -26 -30 -23 -55 -48 -55 -56 0
-11 -6 -11 -30 4 -23 13 -35 15 -48 7 -9 -6 -33 -9 -52 -7 -47 6 -90 -11 -90
-36 0 -16 11 -22 58 -31 31 -7 93 -25 137 -42 139 -53 225 -79 235 -73 5 3 18
1 29 -5 16 -8 22 -7 29 7 9 15 10 14 16 -4 9 -29 28 -35 124 -38 63 -2 85 1
89 11 3 8 17 13 37 11 27 -2 31 1 34 26 3 27 4 27 20 8 13 -15 22 -17 40 -11
12 5 22 14 22 20 0 5 9 10 20 10 30 0 70 22 70 38 0 11 3 12 13 4 32 -27 82
22 62 60 -3 7 0 5 8 -4 15 -19 37 -24 37 -8 0 5 16 25 35 44 19 20 35 44 35
55 0 10 7 32 15 47 8 16 15 38 15 48 0 11 11 43 26 73 14 30 28 76 31 103 3
27 9 47 14 44 9 -5 16 19 22 67 1 15 8 33 13 40 15 20 34 78 34 105 0 29 -19
31 -53 4z"/>
<path d="M1630 651 c0 -41 -37 -155 -73 -226 -96 -191 -290 -345 -507 -404
l-75 -20 333 0 332 -1 0 340 c0 187 -2 340 -5 340 -3 0 -5 -13 -5 -29z"/>
<path d="M1 328 l-1 -328 328 1 327 0 -70 20 c-281 80 -514 313 -569 569 -14
61 -14 44 -15 -262z"/>
</g>
</svg>
